# xmcd CD database file
#
# Track frame offsets:
#	150
#	12486
#	26904
#	60182
#	74254
#
# Disc length: 1209 seconds
#
# Revision: 0
# Processed by: cddbd v1.5PL3 Copyright (c) Steve Scherf et al.
# Submitted via: CDex 1.50beta10
#
DISCID=3b04b705
DTITLE=Conni-Wolf-Band - Conni-Wolf-Band
DYEAR=2004
DGENRE=Jazz
TTITLE0=Chega de Saudade
TTITLE1=Bye Ya
TTITLE2=In You Own Sweet Way
TTITLE3=Kein Schwein ruft mich an
TTITLE4=Devil May Care
EXTD=YEAR: 2004
EXTT0=
EXTT1=
EXTT2=
EXTT3=
EXTT4=
PLAYORDER=
